<svg fill="none" height="24" viewBox="0 0 24 24" width="24" xmlns="http://www.w3.org/2000/svg"><g fill="#fff"><path d="m11 9c0-.55228.4477-1 1-1s1 .44772 1 1v4c0 .5523-.4477 1-1 1s-1-.4477-1-1z"/><path d="m11 16c0-.5523.4477-1 1-1s1 .4477 1 1-.4477 1-1 1-1-.4477-1-1z"/><path clip-rule="evenodd" d="m14.6157 4.5c-1.1625-2-4.0689-2-5.23139 0l-6.97516 12c-1.16252 2 .29063 4.5 2.61569 4.5h13.95036c2.325 0 3.7782-2.5 2.6156-4.5zm-3.4876 1c.3875-.66667 1.3563-.66667 1.7438 0l6.9752 12c.3875.6667-.0969 1.5-.8719 1.5h-13.95036c-.77502 0-1.25941-.8333-.8719-1.5z" fill-rule="evenodd"/></g></svg>