<svg fill="none" height="24" viewBox="0 0 24 24" width="24" xmlns="http://www.w3.org/2000/svg"><path d="m21.9996 11.9998c0-5.52269-4.4771-9.9998-9.9998-9.9998-5.52269 0-9.9998 4.47711-9.9998 9.9998 0 4.6895 3.22874 8.6246 7.58425 9.7054v-6.6495h-2.06196v-3.0559h2.06196v-1.3168c0-3.40351 1.54035-4.98107 4.88195-4.98107.6335 0 1.7267.12439 2.1739.24839v2.76995c-.236-.0248-.646-.0372-1.1552-.0372-1.6395 0-2.2731.62118-2.2731 2.23593v1.0808h3.2663l-.5612 3.0559h-2.7051v6.8707c4.9515-.598 8.7882-4.8139 8.7882-9.9266z" fill="#fff"/></svg>