<svg fill="none" height="24" viewBox="0 0 24 24" width="24" xmlns="http://www.w3.org/2000/svg"><path clip-rule="evenodd" d="m12.0083 2c-5.53434 0-10.0083 4.50694-10.0083 10.0826 0 4.457 2.86662 8.2297 6.84338 9.565.4972.1004.67932-.217.67932-.4839 0-.2337-.01639-1.0349-.01639-1.8698-2.78406.6011-3.36382-1.2019-3.36382-1.2019-.44741-1.1685-1.11034-1.4688-1.11034-1.4688-.91123-.6177.06637-.6177.06637-.6177 1.01078.0668 1.54117 1.035 1.54117 1.035.89463 1.5356 2.33623 1.1017 2.91619.8346.08277-.6511.34806-1.1018.62972-1.3521-2.22046-.2337-4.55669-1.1017-4.55669-4.9746 0-1.1018.39743-2.00317 1.02717-2.7042-.09936-.25034-.44742-1.2855.09956-2.67098 0 0 .84505-.26714 2.75046 1.03496.8158-.22071 1.6571-.33298 2.5022-.33392.845 0 1.7065.11697 2.5019.33392 1.9057-1.3021 2.7507-1.03496 2.7507-1.03496.547 1.38548.1987 2.42064.0994 2.67098.6463.70103 1.0273 1.6024 1.0273 2.7042 0 3.8729-2.3362 4.7241-4.5733 4.9746.3647.3171.6793.918.6793 1.8696 0 1.352-.0163 2.4372-.0163 2.7709 0 .2671.1823.5845.6793.4843 3.9767-1.3357 6.8434-5.1082 6.8434-9.5652.0163-5.57566-4.474-10.0826-9.9917-10.0826z" fill="#fff" fill-rule="evenodd"/></svg>
