<svg fill="none" height="760" viewBox="0 0 800 760" width="800" xmlns="http://www.w3.org/2000/svg"><g fill="#99999922"><path d="m266.28 128.486c.083.089-.36.637-.99 1.225s-1.208.992-1.291.903.36-.637.991-1.225c.63-.587 1.208-.992 1.29-.903z"/><path clip-rule="evenodd" d="m280.15 252.2c1.153.86 2.44 1.024 3.86.49.347-.133.527-.017.54.35.773 27.32 1.527 57.227 2.26 89.72.253 10.874.563 20.617.93 29.23.073 1.68.227 3.337.46 4.97.047.34-.093.567-.42.68-2.733.92-5.19 2.294-7.37 4.12-49.98 42.014-100.763 84.674-152.35 127.98-2.28 1.91-3.77 4.57-2.91 7.65.613 2.207 1.293 4.464 2.04 6.77.8 2.46 2.83 4.29 5.3 4.83 23.64 5.114 47.05 10.15 70.23 15.11 106.607 22.8 216.98 46.574 331.12 71.32.919.199 1.825.295 2.722.39 1.046.111 2.08.221 3.108.49 1.333.347 2.807.383 4.42.11 2.107-.353 3.83-.78 5.17-1.28 4.293-1.593 7.33-4.283 9.11-8.07 7.013-14.953 14.073-29.823 21.18-44.61.067-.134.171-.246.3-.322s.278-.112.428-.105c.15.008.294.059.415.147s.214.21.267.35c.26.72.117 1.304-.43 1.75-.207.167-.197.324.03.47.967.634 1.817 1.434 2.55 2.4.22.287.51.434.87.44.591.005 1.157.128 1.735.253.565.122 1.142.247 1.765.267 31 .967 61.973 1.93 92.92 2.89.753.02 1.487.064 2.2.13 1.687.147 3.08-.26 4.18-1.22 15.98-13.9 32.26-27.99 48.84-42.27 3.953-3.406 7.98-6.926 12.08-10.56 1.067-.946 1.82-1.973 2.26-3.08 10.12-25.613 20.33-51.44 30.63-77.48.213-.546.2-1.086-.04-1.62l-39.65-88.85c-.347-.772-.968-1.385-1.74-1.72-19.787-8.7-39.923-17.58-60.41-26.64-2-.887-3.957-1.373-5.87-1.46-3.753-.173-7.56-.26-11.42-.26-.34 0-.643-.103-.91-.31-1.036-.808-3.351-.677-5.07-.579-.387.022-.745.042-1.05.049-.071.003-.141-.009-.208-.034-.066-.026-.126-.065-.176-.114-.051-.05-.091-.109-.118-.175-.026-.066-.039-.136-.038-.207l.04-3.36c.007-.4.193-.677.56-.83.16-.06.26-.16.3-.3.087-.293-.003-.52-.27-.68-.2-.126-.383-.16-.55-.1-.42.14-.617-.023-.59-.49 2.347-44.733 4.63-86.763 6.85-126.09.272-4.857.514-9.659.755-14.439.423-8.386.842-16.704 1.415-25.131.447-6.566.633-12.956.56-19.17-.07-5.73-3.11-9.33-8.15-11.25-2.533-.966-4.32-1.443-5.36-1.43-6.053.094-12.35.297-18.89.61-42.547 2.047-97.567 4.367-165.06 6.96-6.915.269-13.534.612-20.024.947-7.494.388-14.815.767-22.216 1.013-16.88.554-34.197 1.317-51.95 2.29-.6.034-.73-.196-.39-.69.267-.387.59-.536.97-.45.46.1.603-.07.43-.51-.793-1.946-1.663-3.7-2.61-5.26-7.593-12.56-17.54-22.8332-29.84-30.8198-.62-.4067-1.827-1.0667-3.62-1.98-1.153-.5934-2.26-1.2834-3.32-2.07-.827-.6134-1.763-1.0234-2.81-1.23-.887-.1734-1.767-.5067-2.64-1-1.133-.6334-2.313-1.2467-3.54-1.84-.32-.16-.657-.2134-1.01-.16-.553.08-.997-.09-1.33-.51-.26-.3267-.603-.4934-1.03-.5l-1.04-.02c-.289-.0063-.564-.1167-.77-.31-.596-.5486-1.44-.6706-2.298-.7948-.409-.0591-.822-.1187-1.212-.2252-4.32-1.18-8.053-1.9367-11.2-2.27-2.94-.3134-6.153-.6034-9.64-.87-2.527-.1934-4.94-.15-7.24.13-2.58.32-5.137.4666-7.67.44-.779-.0096-1.507.2026-2.245.4178-.797.2325-1.607.4685-2.505.4322-1.38-.0534-2.69.2166-3.93.81-.353.1666-.727.24-1.12.22-.86-.0334-1.647.1633-2.36.59-.276.1644-.588.2636-.91.29-1.913.16-3.67.7733-5.27 1.84-.293.2-.613.2833-.96.25-.74-.06-1.34.1533-1.8.64-.26.2866-.583.4166-.97.39-.407-.02-.797.0533-1.17.22-5.107 2.26-9.787 4.75-14.04 7.47-9.58 6.12-17.607 13.6833-24.08 22.6898-.375.522-.785 1.021-1.195 1.518-.845 1.027-1.686 2.049-2.205 3.262-.443 1.028-1.033 1.865-1.626 2.704-.531.753-1.064 1.508-1.494 2.406-1.407 2.934-2.85 5.817-4.33 8.65-.187.354-.253.73-.2 1.13.067.514-.087.937-.46 1.27-.132.125-.234.279-.3.45-2.86 8.1-4.507 16.437-4.94 25.01-.41 8.03.9 16.73 2.51 24.5 4.53 21.93 17.91 43.36 37.12 56.14 5.013 3.333 10.773 6.507 17.28 9.52.44.207.88.31 1.32.31.507 0 .937.187 1.29.56.115.125.257.222.415.285.157.062.327.088.495.075.893-.053 1.667.21 2.32.79.111.095.24.167.379.212.139.044.285.061.431.048.793-.086 1.473.13 2.04.65.327.3.71.41 1.15.33 1.207-.213 2.207.044 3 .77.118.107.26.185.414.23s.316.055.476.03c.673-.113 1.317-.076 1.93.11 1.393.42 1.367.687-.08.8-.78.053-1.573-.127-2.38-.54-.32-.167-.66-.246-1.02-.24-.653.02-1.32-.097-2-.35-.66-.24-1.33-.446-2.01-.62-7.353-1.853-14.19-4.6-20.51-8.24-1.88-1.08-3.653-2.073-5.32-2.98-.427-.233-.49-.16-.19.22.207.267.45.464.73.59 1.413.62 2.693 1.344 3.84 2.17 2.492 1.789 5.372 3.195 8.207 4.58 1.079.526 2.151 1.05 3.193 1.59.6.314 1.227.49 1.88.53.367.02.697.144.99.37.587.46 1.24.654 1.96.58.176-.016.352.006.518.065s.317.153.442.275c.5.494 1.1.7 1.8.62.427-.046.81.064 1.15.33l.53.41c.407.327.863.43 1.37.31.953-.213 1.79-.01 2.51.61.427.36.913.483 1.46.37.98-.213 1.847 0 2.6.64.31.259.703.4 1.11.4l4.49-.02c.331 0 .654.109.92.31zm-10.66-126.15c-.927.5-1.78 1.124-2.56 1.87-.507.487-.457.557.15.21 3.88-2.24 7.25-3.926 10.11-5.06 2.68-1.066 5.637-1.79 8.87-2.17 1.407-.166 2.777-.436 4.11-.81 1.633-.453 3.35-.453 5.15 0 1.848.456 3.755.771 5.652 1.085 1.141.189 2.279.377 3.398.595 1.347.267 2.563.744 3.65 1.43.993.627 2.047.877 3.16.75.081-.01.164 0 .24.03s.144.078.196.141c.053.062.089.137.106.218.016.08.012.163-.012.241-.047.154-.133.277-.26.37-.127.094-.267.14-.42.14-5.9 0-11.69.004-17.37.01-1.096 0-2.034.269-2.967.535-.812.233-1.62.464-2.523.515-2.01.12-3.96 2.44-4.65 4.06-1.32 3.11-1.86 6.32-1.79 9.78.413 19.86.89 40.03 1.43 60.51.06 2.074.097 4.11.11 6.11 0 .22-.107.33-.32.33h-.27c-.3.007-.487-.133-.56-.42l-.52-1.92c-.042-.152-.134-.286-.261-.38s-.281-.143-.439-.14l-2.38.03c-.367.007-.663-.13-.89-.41-.373-.46-.877-.66-1.51-.6-.38.04-.74-.026-1.08-.2-2.287-1.193-4.6-2.36-6.94-3.5-1.053-.52-1.967-1.143-2.74-1.87-.579-.544-1.212-.953-1.847-1.365-.627-.406-1.257-.814-1.843-1.355-4.64-4.333-8.207-9.523-10.7-15.57-2.353-5.713-3.607-10.853-3.76-15.42-.127-3.733.133-7.767.78-12.1.127-.873.403-1.687.83-2.44.306-.529.423-1.088.544-1.659.1-.476.202-.959.416-1.441 4.84-10.813 13.033-18.75 24.58-23.81 1.107-.486 2.127-.833 3.06-1.04.573-.126.62-.016.14.33-.48.34-1.013.543-1.6.61-.293.04-.563.144-.81.31-1.913 1.307-3.8 2.464-5.66 3.47z" fill-rule="evenodd"/></g></svg>
