<?xml version="1.0" encoding="utf-8"?><svg xmlns="http://www.w3.org/2000/svg" xmlns:xlink="http://www.w3.org/1999/xlink"><symbol viewBox="0 0 24 24" id="caution" xmlns="http://www.w3.org/2000/svg"><g><path d="M11 9a1 1 0 112 0v4a1 1 0 11-2 0zM11 16a1 1 0 112 0 1 1 0 01-2 0z"/><path clip-rule="evenodd" d="M14.616 4.5c-1.163-2-4.07-2-5.232 0l-6.975 12c-1.162 2 .29 4.5 2.616 4.5h13.95c2.325 0 3.778-2.5 2.616-4.5zm-3.488 1a1.01 1.01 0 011.744 0l6.975 12a1 1 0 01-.872 1.5H5.025a1 1 0 01-.872-1.5z" fill-rule="evenodd"/></g></symbol><symbol viewBox="0 0 24 24" id="close" xmlns="http://www.w3.org/2000/svg"><path d="M18.3 5.71a1 1 0 00-1.41 0L12 10.59 7.11 5.7A1 1 0 005.7 7.11L10.59 12 5.7 16.89a1 1 0 001.41 1.41L12 13.41l4.89 4.89a1 1 0 001.41-1.41L13.41 12l4.89-4.89a1 1 0 000-1.4z"/></symbol><symbol viewBox="0 0 24 24" id="code" xmlns="http://www.w3.org/2000/svg"><path d="M8.7 15.9L4.8 12l3.9-3.9a1 1 0 00-1.4-1.4l-4.59 4.59a1 1 0 000 1.41l4.59 4.6a1 1 0 101.4-1.4zm6.6 0l3.9-3.9-3.9-3.9a1 1 0 011.4-1.4l4.59 4.59a1 1 0 010 1.41l-4.59 4.6a1.001 1.001 0 11-1.4-1.4z"/></symbol><symbol viewBox="0 0 24 24" id="contact" xmlns="http://www.w3.org/2000/svg"><path clip-rule="evenodd" d="M4.607 6.607c.238-.238.573-.408 1.268-.504C6.603 6.003 7.57 6 9 6h6c1.429 0 2.397.002 3.125.103.695.096 1.03.266 1.268.504s.408.573.504 1.268c.024.173.042.36.056.562L12 12.856 4.047 8.437c.014-.203.032-.39.056-.562.096-.695.266-1.03.504-1.268zm-2.58 2.165a.997.997 0 00-.014.391A72.96 72.96 0 002 10.928v2.144c0 1.339 0 2.446.122 3.328.129.93.41 1.745 1.07 2.407.663.662 1.478.942 2.408 1.071C6.482 20 7.59 20 8.928 20h6.144c1.339 0 2.446 0 3.328-.122.93-.129 1.745-.41 2.407-1.07s.942-1.478 1.071-2.408c.122-.882.122-1.99.122-3.328v-2.144c0-.64 0-1.23-.013-1.765a.997.997 0 00-.013-.391 12.306 12.306 0 00-.096-1.172c-.129-.93-.41-1.745-1.07-2.407-.663-.662-1.478-.942-2.408-1.071C17.518 4 16.41 4 15.072 4H8.928C7.59 4 6.482 4 5.6 4.122c-.93.129-1.745.41-2.407 1.07C2.53 5.856 2.25 6.67 2.122 7.6c-.05.354-.078.745-.096 1.172zM20 10.7V13c0 1.429-.002 2.397-.103 3.125-.096.695-.266 1.03-.504 1.268s-.573.408-1.268.504c-.728.1-1.696.103-3.125.103H9c-1.429 0-2.397-.002-3.125-.103-.695-.096-1.03-.266-1.268-.504s-.408-.573-.504-1.268C4.003 15.397 4 14.43 4 13v-2-.3l7.514 4.174a1 1 0 00.972 0z" fill-rule="evenodd"/></symbol><symbol viewBox="0 0 24 24" id="date" xmlns="http://www.w3.org/2000/svg"><path d="M16 13h-3c-.55 0-1 .45-1 1v3c0 .55.45 1 1 1h3c.55 0 1-.45 1-1v-3c0-.55-.45-1-1-1zm0-10v1H8V3c0-.55-.45-1-1-1s-1 .45-1 1v1H5c-1.11 0-1.99.9-1.99 2L3 20a2 2 0 002 2h14c1.1 0 2-.9 2-2V6c0-1.1-.9-2-2-2h-1V3c0-.55-.45-1-1-1s-1 .45-1 1zm2 17H6c-.55 0-1-.45-1-1V9h14v10c0 .55-.45 1-1 1z"/></symbol><symbol viewBox="0 0 24 24" id="design" xmlns="http://www.w3.org/2000/svg"><path d="M3 17.46v3a.5.5 0 00.5.5h3a.469.469 0 00.35-.15L17.81 9.94l-3.75-3.75L3.15 17.1a.49.49 0 00-.15.36zM20.71 7a1 1 0 000-1.41l-2.34-2.3a1 1 0 00-1.41 0l-1.83 1.83 3.75 3.75z"/></symbol><symbol viewBox="0 0 24 24" id="dribbble" xmlns="http://www.w3.org/2000/svg"><path clip-rule="evenodd" d="M12 2a10 10 0 100 20 10 10 0 000-20zm6.61 4.61a8.26 8.26 0 011.93 5.32 20.692 20.692 0 00-5.93-.29c-.07-.14-.11-.28-.18-.43-.18-.39-.36-.82-.57-1.25a11.25 11.25 0 004.75-3.35zM12 3.46a8.56 8.56 0 015.68 2.15 9.59 9.59 0 01-4.47 3.07 50.824 50.824 0 00-3.17-5A8.6 8.6 0 0112 3.46zm-3.64.83a59.533 59.533 0 013.18 4.92 30.942 30.942 0 01-7.9 1 8.51 8.51 0 014.72-5.92zM3.46 12v-.25c2.972.009 5.93-.399 8.79-1.21.25.46.46 1 .68 1.46l-.32.11a13.56 13.56 0 00-6.93 5.64A8.44 8.44 0 013.46 12zM12 20.54a8.46 8.46 0 01-5.25-1.79 11.67 11.67 0 016.71-5.32 33.81 33.81 0 011.82 6.47 8.2 8.2 0 01-3.28.64zm4.75-1.47A38.887 38.887 0 0015.11 13a12.75 12.75 0 015.32.36 8.44 8.44 0 01-3.68 5.71z" fill-rule="evenodd"/></symbol><symbol viewBox="0 0 24 24" id="facebook" xmlns="http://www.w3.org/2000/svg"><path d="M22 12c0-5.523-4.477-10-10-10S2 6.477 2 12c0 4.69 3.229 8.624 7.584 9.705v-6.65H7.522V12h2.062v-1.317c0-3.404 1.54-4.981 4.882-4.981.634 0 1.727.124 2.174.248v2.77a12.853 12.853 0 00-1.155-.037c-1.64 0-2.273.621-2.273 2.236v1.08h3.266l-.561 3.057h-2.705v6.87C18.163 21.328 22 17.112 22 12z"/></symbol><symbol viewBox="0 0 24 24" id="feedly" xmlns="http://www.w3.org/2000/svg"><path d="M12.22 16.44l1.13 1.14a.31.31 0 010 .45l-.84.83a.171.171 0 01-.14.06h-.74a.18.18 0 01-.14-.05l-.85-.87a.31.31 0 010-.45l1.12-1.13a.34.34 0 01.46 0zm0-4.66l1.13 1.14a.31.31 0 010 .45l-3.18 3.17a.171.171 0 01-.14.06H9.3a.2.2 0 01-.14-.05l-.85-.86a.311.311 0 010-.45l3.46-3.46a.34.34 0 01.46 0zm0-4.65l1.13 1.13a.318.318 0 010 .46l-5.51 5.5a.16.16 0 01-.14.06H7a.2.2 0 01-.14 0L6 13.37a.311.311 0 010-.45l5.79-5.79a.34.34 0 01.44 0zm1.42-3.29a2.34 2.34 0 00-3.3 0L2.68 11.5a2.32 2.32 0 000 3.29l5.53 5.53c.344.3.775.483 1.23.52h5.08a2.34 2.34 0 001.29-.54l5.51-5.51a2.32 2.32 0 000-3.29l-7.67-7.66z"/></symbol><symbol viewBox="0 0 24 24" id="github" xmlns="http://www.w3.org/2000/svg"><path clip-rule="evenodd" d="M12.008 2C6.474 2 2 6.507 2 12.083c0 4.457 2.867 8.23 6.843 9.565.498.1.68-.217.68-.484 0-.234-.017-1.035-.017-1.87-2.784.601-3.364-1.202-3.364-1.202-.447-1.169-1.11-1.469-1.11-1.469-.911-.618.067-.618.067-.618 1.01.067 1.54 1.035 1.54 1.035.895 1.536 2.337 1.102 2.917.835.083-.651.348-1.102.63-1.352-2.22-.234-4.557-1.102-4.557-4.975 0-1.101.397-2.003 1.027-2.704-.1-.25-.447-1.285.1-2.67 0 0 .845-.268 2.75 1.034a9.622 9.622 0 012.502-.334c.845 0 1.707.117 2.502.334 1.906-1.302 2.75-1.035 2.75-1.035.548 1.386.2 2.42.1 2.671.647.701 1.028 1.603 1.028 2.704 0 3.873-2.337 4.724-4.574 4.975.365.317.68.918.68 1.87 0 1.352-.017 2.437-.017 2.77 0 .268.183.585.68.485A10.075 10.075 0 0022 12.083C22.016 6.507 17.526 2 12.008 2z" fill-rule="evenodd"/></symbol><symbol viewBox="0 0 24 24" id="gnews" xmlns="http://www.w3.org/2000/svg"><path d="M20.4 5.05H3.6a.6.6 0 00-.6.6v12.7a.6.6 0 00.6.6h16.8a.6.6 0 00.6-.6V5.65a.6.6 0 00-.6-.6zm-7.64 3.71h5a.26.26 0 01.26.26v.8a.26.26 0 01-.26.26h-5zm-4.5 6.35a3.18 3.18 0 110-6.35 3 3 0 012.13.83l-.91.9A1.75 1.75 0 008.26 10a1.92 1.92 0 000 3.84A1.61 1.61 0 0010 12.6H8.26v-1.2h3a4.07 4.07 0 01.05.61 2.92 2.92 0 01-3.05 3.1zm9.79-.26a.26.26 0 01-.26.26h-5v-1.32h5a.26.26 0 01.26.26zm.8-2.52a.27.27 0 01-.27.27h-5.82v-1.33h5.82a.27.27 0 01.27.27z"/></symbol><symbol viewBox="0 0 24 24" id="hatebu" xmlns="http://www.w3.org/2000/svg"><path d="M13.86 12.53a3.552 3.552 0 00-2.49-1.12 4 4 0 002.07-1.14 3 3 0 00.65-2 3.62 3.62 0 00-.44-1.79 3.24 3.24 0 00-1.27-1.22 5.18 5.18 0 00-1.73-.57 25.641 25.641 0 00-3.54-.19H3v15h4.24c1.23.028 2.459-.029 3.68-.17a6 6 0 001.88-.59 3.35 3.35 0 001.45-1.41 4.26 4.26 0 00.51-2.12 3.85 3.85 0 00-.9-2.68zM6.8 7.82h.88a4.08 4.08 0 012 .34 1.32 1.32 0 01.52 1.19 1.23 1.23 0 01-.56 1.15 4.46 4.46 0 01-2.07.33H6.8v-3zm3.48 8.6a4.23 4.23 0 01-2 .36H6.8v-3.27h1.49a3.88 3.88 0 012 .38 1.5 1.5 0 01.55 1.32 1.22 1.22 0 01-.6 1.21zM21 17.6a1.9 1.9 0 11-3.8 0 1.9 1.9 0 013.8 0zM17.45 4.5h3.3v10h-3.3z"/></symbol><symbol viewBox="0 0 24 24" id="instagram" xmlns="http://www.w3.org/2000/svg"><path d="M12 4.59a30.002 30.002 0 013.67.1 4.49 4.49 0 011.66.31 3.17 3.17 0 011.06.63A2 2 0 0119 6.7a4.41 4.41 0 01.32 1.65c0 1 .11 1.27.11 3.67a26.325 26.325 0 01-.11 3.66c0 .569-.11 1.132-.32 1.66A3.22 3.22 0 0117.33 19a4.49 4.49 0 01-1.66.31c-.95 0-1.27.11-3.67.11-1.224.048-2.45.011-3.67-.11A4.49 4.49 0 016.67 19a3.2 3.2 0 01-1.06-.64 2.06 2.06 0 01-.61-1 4.5 4.5 0 01-.32-1.66c0-.95-.11-1.27-.11-3.66a26.481 26.481 0 01.11-3.67A4.41 4.41 0 015 6.7a3.17 3.17 0 01.63-1.06 2 2 0 011-.64 4.5 4.5 0 011.66-.32c.95 0 1.27-.1 3.67-.1zM12 3a26.481 26.481 0 00-3.67.11c-.742.07-1.475.21-2.19.42a3.78 3.78 0 00-1.55 1.06 4.13 4.13 0 00-1.06 1.55 5.79 5.79 0 00-.42 2.18C3.11 9.27 3 9.59 3 12a26.481 26.481 0 00.11 3.67 5.79 5.79 0 00.42 2.18 4.27 4.27 0 001.06 1.59c.44.44.968.78 1.55 1a5.88 5.88 0 002.19.42c.95 0 1.27.11 3.67.11 1.224.048 2.45.012 3.67-.11.742-.07 1.475-.21 2.19-.42a4.33 4.33 0 002.61-2.6 5.88 5.88 0 00.42-2.19c0-1 .11-1.27.11-3.66.048-1.224.012-2.45-.11-3.67a5.79 5.79 0 00-.42-2.18 3.78 3.78 0 00-1.06-1.55 4.13 4.13 0 00-1.55-1.06 5.88 5.88 0 00-2.19-.42A21.45 21.45 0 0012 3zm0 4.4a4.6 4.6 0 104.62 4.6A4.65 4.65 0 0012 7.4zm0 7.65a3 3 0 113-3 3.06 3.06 0 01-3 3zm3.78-7.86a1.06 1.06 0 102.11.21c.01-.07.01-.14 0-.21a1.06 1.06 0 00-2.11 0z"/></symbol><symbol viewBox="0 0 24 24" id="less" xmlns="http://www.w3.org/2000/svg"><path d="M11.29 8.71L6.7 13.3a1 1 0 101.41 1.41L12 10.83l3.88 3.88a1 1 0 101.41-1.41L12.7 8.71a1 1 0 00-1.41 0z"/></symbol><symbol viewBox="0 0 24 24" id="line" xmlns="http://www.w3.org/2000/svg"><path d="M22 10.59c0-4.48-4.49-8.12-10-8.12S2 6.11 2 10.59c0 4 3.56 7.37 8.36 8 .33.07.77.22.88.5a2.11 2.11 0 010 .9s-.12.71-.15.86-.2 1 .87.54a32.45 32.45 0 007.86-5.81A7.21 7.21 0 0022 10.59zM8.47 13a.2.2 0 01-.19.19H5.47a.21.21 0 01-.13-.05.19.19 0 010-.13V8.62a.2.2 0 01.2-.2h.7a.2.2 0 01.19.2v3.46h1.85a.2.2 0 01.19.19zm1.69 0a.19.19 0 01-.19.19h-.7a.2.2 0 01-.2-.19V8.62a.2.2 0 01.2-.2H10a.19.19 0 01.19.2zM15 13a.2.2 0 01-.19.19H14v-.05l-2-2.7V13a.2.2 0 01-.2.19H11a.2.2 0 01-.2-.19V8.62a.2.2 0 01.2-.2h.85l2 2.7v-2.5a.2.2 0 01.19-.2h.71a.2.2 0 01.19.2zm3.87-3.66a.19.19 0 01-.19.2h-1.92v.73h1.91a.19.19 0 01.19.2v.7a.18.18 0 01-.19.19h-1.91v.74h1.91a.19.19 0 01.19.19V13a.19.19 0 01-.19.19h-2.8a.24.24 0 01-.14-.05.16.16 0 01-.06-.13V8.62a.16.16 0 01.06-.13.22.22 0 01.14-.06h2.8a.19.19 0 01.19.2z"/></symbol><symbol viewBox="0 0 24 24" id="link" xmlns="http://www.w3.org/2000/svg"><path d="M17 7h-3a1 1 0 100 2h3a3 3 0 010 6h-3a1 1 0 000 2h3a5 5 0 100-10zm-9 5a1 1 0 001 1h6a1 1 0 000-2H9a1 1 0 00-1 1zm2 3H7a3 3 0 010-6h3a1 1 0 100-2H7a5 5 0 100 10h3a1 1 0 000-2z"/></symbol><symbol viewBox="0 0 167 60" xml:space="preserve" id="logo-note" xmlns="http://www.w3.org/2000/svg"><style>.aqst0{fill:#fff}</style><path class="aqst0" d="M21.5 15.1c-6.3-.2-15.1.2-21.5.2V48h9.2V23.2s8.2-.3 11.1.1c2.8.3 3.8 2 3.9 5.6.1 4.1 0 6.2 0 19.1h9.2s.1-14.8 0-19.9c-.2-9.1-3.4-12.8-11.9-13zM63.9 15c-9.1 0-16.4 7.4-16.4 16.5S54.9 48 63.9 48s16.4-7.4 16.4-16.5S73 15 63.9 15zm0 25.2c-4.8 0-8.6-3.9-8.6-8.7s3.8-8.7 8.6-8.7 8.6 3.9 8.6 8.7c0 4.8-3.8 8.7-8.6 8.7zM167 31.5c0-9.1-7.4-16.5-16.4-16.5s-16.4 7.4-16.4 16.5c0 5.4 2.4 9.9 6.3 13 2.7 2.1 6.4 3.6 11.3 3.6 2.4 0 8.7-.7 13.2-5.7l-3.7-5c-1.6 1.4-5.5 3.4-8.7 3.4-4 0-6.4-.8-8.2-2.4-1.1-1-1.9-2.5-2.2-4.3h24.6c.1-.9.2-1.7.2-2.6zm-24.8-3c.9-3.9 3.6-6.8 8.3-6.8 4.9 0 7.4 3.1 8.3 6.8h-16.6zM111.5 11.9h-8.6v9.2h-8.8v8h8.8v9.6h8.6v-9.6h8.8v-8h-8.8v-9.2z"/></symbol><symbol viewBox="0 0 181 60" id="logo-qiita" xmlns="http://www.w3.org/2000/svg"><clipPath><path d="M0 0h181v60H0z"/></clipPath><g clip-path="url(#a)"><path d="M70.886 16.75c2.877 0 5.21-2.326 5.21-5.195 0-2.87-2.333-5.195-5.21-5.195s-5.21 2.326-5.21 5.195c0 2.87 2.333 5.195 5.21 5.195zM120.723 3.89h-8.558v11.16h-5.761v8h5.761v16.1c0 3.147.401 5.723 1.203 7.73a11.739 11.739 0 003.264 4.74 11.482 11.482 0 004.849 2.38 20.34 20.34 0 005.239.645h6.433V47.03h-5.556a9.45 9.45 0 01-2.652-.36 5.344 5.344 0 01-2.196-1.255 6.074 6.074 0 01-1.504-2.44 11.62 11.62 0 01-.557-3.9v-16.03h12.565v-8h-12.535zM54.305 28.6a24.64 24.64 0 00-2.161-10.235 26.104 26.104 0 00-5.806-8.29A27.183 27.183 0 0037.694 4.5a27.739 27.739 0 00-10.559-2 27.694 27.694 0 00-10.59 2 27.083 27.083 0 00-8.603 5.575 26.354 26.354 0 00-5.801 8.29A24.642 24.642 0 000 28.6a24.567 24.567 0 002.14 10.205 26.614 26.614 0 005.802 8.31 27.512 27.512 0 0019.193 7.625c2.52.01 5.028-.317 7.46-.97a27.51 27.51 0 006.689-2.815l5.224 5.255a4.37 4.37 0 003.118 1.388 4.383 4.383 0 003.167-1.27 4.358 4.358 0 001.286-3.154 4.349 4.349 0 00-1.378-3.114l-4.703-4.695a26.516 26.516 0 004.647-7.68 24.6 24.6 0 001.66-9.085zm-10.584 7.225a17.997 17.997 0 01-3.83 5.775 17.917 17.917 0 01-12.755 5.24 17.591 17.591 0 01-6.99-1.4 17.923 17.923 0 01-5.696-3.84 18.738 18.738 0 01-4.937-9.51 18.707 18.707 0 011.086-10.655c.901-2.16 2.208-4.126 3.85-5.795a18.087 18.087 0 015.697-3.84 17.59 17.59 0 016.989-1.395c2.41-.015 4.799.46 7.02 1.395 2.146.9 4.093 2.214 5.728 3.868a17.59 17.59 0 013.798 5.767 18.39 18.39 0 011.444 7.205 18.256 18.256 0 01-1.404 7.185zM173.61 17.32l-.502 4a18.74 18.74 0 00-2.421-1.96 16.784 16.784 0 00-3.009-1.625 20.15 20.15 0 00-3.464-1.09 17.957 17.957 0 00-3.931-.41 20.32 20.32 0 00-7.977 1.5 18.702 18.702 0 00-6.157 4.13A18.229 18.229 0 00142.203 28a20.056 20.056 0 00-1.399 7.5 19.801 19.801 0 001.419 7.5 18.595 18.595 0 003.961 6.12 18.276 18.276 0 006.142 4.115 20.407 20.407 0 007.942 1.5c1.314.006 2.625-.13 3.911-.405a19.95 19.95 0 003.469-1.095 18.296 18.296 0 003.008-1.61 17.29 17.29 0 002.477-1.975l.502 4h7.36V17.32zm-1.77 22.955a11.653 11.653 0 01-2.507 3.745 11.25 11.25 0 01-3.7 2.435 12.453 12.453 0 01-9.096 0 11.24 11.24 0 01-6.227-6.195 12.966 12.966 0 010-9.565A11.44 11.44 0 01152.782 27a11.103 11.103 0 013.7-2.435 11.925 11.925 0 014.568-.865 11.741 11.741 0 018.278 3.3 11.23 11.23 0 012.507 3.725 11.96 11.96 0 01.922 4.745 12.16 12.16 0 01-.917 4.805zM75.082 22.565H66.69v31.11h8.393zM95.975 22.565h-8.393v31.11h8.393zM96.592 13.542a5.19 5.19 0 00-2.82-6.788 5.214 5.214 0 00-6.806 2.812 5.19 5.19 0 002.82 6.787 5.214 5.214 0 006.806-2.811z"/></g></symbol><symbol viewBox="0 0 342 120" id="logo-zenn" xmlns="http://www.w3.org/2000/svg"><path d="M159 77.29h-49.29a19.75 19.75 0 006.06 11.62 18.29 18.29 0 0012.38 4.29 24.49 24.49 0 0010.35-2.15 21 21 0 008.21-6.31l10.35 12a31.67 31.67 0 01-12 10 40.91 40.91 0 01-18.55 4 41.72 41.72 0 01-20.84-5 34.6 34.6 0 01-13.51-13.8 38.56 38.56 0 01-4.67-19.07V70.1a47.7 47.7 0 014.42-20.84A33.27 33.27 0 01104.66 35a37 37 0 0119.57-5.18A36.58 36.58 0 01143 34.49a30.85 30.85 0 0111.87 13.26 48.66 48.66 0 014 20.33zM137.62 61a14.49 14.49 0 00-3.54-10c-2.27-2.4-5.55-3.66-10-3.66a12.66 12.66 0 00-9.72 4 21.92 21.92 0 00-4.55 11.36h27.78zM26.77 91.31h45.57v18.56H.51V96.48L45.7 27.93H0V9.24h71.46v13.13zM178.9 69.59c0-24.11 16-36.86 35.6-36.86s35.23 12.75 35.23 36.86v39.52h-20.2V70.48c0-13.39-6.06-20.33-15.15-20.33s-15.66 6.94-15.66 20.33v38.75h-19.95zM269.17 69.59c0-24.11 16-36.86 35.61-36.86S340 45.48 340 69.59v39.52h-20.2V70.48c0-13.39-6.06-20.33-15.15-20.33S289 57.09 289 70.48v38.75h-19.95z"/></symbol><symbol viewBox="0 0 24 24" id="me" xmlns="http://www.w3.org/2000/svg"><g><path d="M15.6 15c2-1.2 3.4-3.5 3.4-6 0-3.9-3.1-7-7-7S5 5.1 5 9c0 2.5 1.4 4.8 3.4 6-2 1.2-3.4 3.5-3.4 6 0 .6.4 1 1 1h12c.6 0 1-.4 1-1 0-2.5-1.4-4.8-3.4-6zM7 9c0-2.8 2.2-5 5-5s5 2.2 5 5-2.2 5-5 5-5-2.2-5-5zm.1 11c.5-2.3 2.5-4 4.9-4s4.4 1.7 4.9 4z"/><circle cx="10" cy="9" r="1"/><circle cx="14" cy="9" r="1"/></g></symbol><symbol viewBox="0 0 24 24" id="menu" xmlns="http://www.w3.org/2000/svg"><path d="M4 18h16c.55 0 1-.45 1-1s-.45-1-1-1H4c-.55 0-1 .45-1 1s.45 1 1 1zm0-5h16c.55 0 1-.45 1-1s-.45-1-1-1H4c-.55 0-1 .45-1 1s.45 1 1 1zM3 7c0 .55.45 1 1 1h16c.55 0 1-.45 1-1s-.45-1-1-1H4c-.55 0-1 .45-1 1z"/></symbol><symbol viewBox="0 0 24 24" id="more" xmlns="http://www.w3.org/2000/svg"><path d="M15.88 9.29L12 13.17 8.12 9.29a1 1 0 10-1.41 1.41l4.59 4.59a1 1 0 001.41 0l4.59-4.59a1 1 0 10-1.42-1.41z"/></symbol><symbol viewBox="0 0 24 24" id="next" xmlns="http://www.w3.org/2000/svg"><path d="M9.29 6.71a1 1 0 000 1.41L13.17 12l-3.88 3.88a1 1 0 101.41 1.41l4.59-4.59a1 1 0 000-1.41L10.7 6.7a1 1 0 00-1.41.01z"/></symbol><symbol viewBox="0 0 24 24" id="note" xmlns="http://www.w3.org/2000/svg"><path d="M5 5.09c2.7 0 6.39-.14 9.04-.07 3.55.09 4.9 1.64 4.94 5.46.05 2.17 0 8.36 0 8.36h-3.85c0-5.42.02-6.32 0-8.02-.05-1.51-.47-2.22-1.63-2.36-1.22-.14-4.65-.02-4.65-.02v10.41H5z"/></symbol><symbol viewBox="0 0 24 24" id="open" xmlns="http://www.w3.org/2000/svg"><path d="M18.83 5.17C17.66 4 15.77 4 12 4S6.34 4 5.17 5.17 4 8.23 4 12s0 5.66 1.17 6.83S8.23 20 12 20s5.66 0 6.83-1.17S20 15.77 20 12s0-5.66-1.17-6.83zm-1 11c-.12.87-.3 1.14-.46 1.29s-.42.34-1.29.46A33.78 33.78 0 0112 18a33.78 33.78 0 01-4.12-.13c-.87-.12-1.14-.3-1.29-.46s-.34-.42-.46-1.29A33.78 33.78 0 016 12a33.78 33.78 0 01.13-4.12c.12-.87.3-1.14.46-1.29s.41-.34 1.29-.46A33.78 33.78 0 0112 6a33.78 33.78 0 014.12.13c.87.12 1.14.3 1.29.46s.34.42.46 1.29A33.78 33.78 0 0118 12a33.78 33.78 0 01-.13 4.12z"/><path d="M15.38 8.08A1 1 0 0015 8h-5a1 1 0 000 2h2.59l-4.3 4.29a1 1 0 000 1.42 1 1 0 001.42 0l4.29-4.3V14a1 1 0 002 0V9a1 1 0 00-.08-.38 1 1 0 00-.54-.54z"/></symbol><symbol viewBox="0 0 24 24" id="pinterest" xmlns="http://www.w3.org/2000/svg"><path d="M12 2a10 10 0 00-3.64 19.3 9.86 9.86 0 010-2.87c.18-.78 1.17-5 1.17-5A3.66 3.66 0 019.27 12c0-1.39.8-2.42 1.81-2.42a1.25 1.25 0 011.28 1.24c.005.06.005.12 0 .18a19.107 19.107 0 01-.84 3.33 1.458 1.458 0 001.12 1.74c.123.015.247.015.37 0 1.78 0 3.14-1.87 3.14-4.57a3.94 3.94 0 00-3.81-4.06H12a4.32 4.32 0 00-4.55 4.09 1.93 1.93 0 000 .24c0 .82.259 1.617.74 2.28a.31.31 0 01.06.29c-.07.31-.24 1-.28 1.13a.21.21 0 01-.33.13c-1.26-.58-2-2.4-2-3.87 0-3.15 2.29-6 6.62-6a5.86 5.86 0 016.16 5.56c.005.07.005.14 0 .21 0 3.45-2.18 6.22-5.19 6.22a2.671 2.671 0 01-2.29-1.15s-.51 1.9-.63 2.37A10.87 10.87 0 019 21.56c.973.292 1.984.44 3 .44a10 10 0 000-20z"/></symbol><symbol viewBox="0 0 24 24" id="pixiv" xmlns="http://www.w3.org/2000/svg"><path d="M19 5.68a8.35 8.35 0 00-5.8-1.95C7.13 3.73 3 8.45 3 8.45l1.14 1.84s.63.1.32-1A8.28 8.28 0 016.4 7.1v12.34c-.52.11-1.15.42-.73.84H9c.41-.42-.21-.73-.73-.84v-3a18.67 18.67 0 004.73 1 9.22 9.22 0 005.66-1.84A6 6 0 0021 10.74a5.811 5.811 0 00-2-5.06zm-1.83 8.84a6.31 6.31 0 01-4.24 1.63 11.43 11.43 0 01-4.54-.94V6a9 9 0 014.54-1.36 5.7 5.7 0 014.24 1.74 6.22 6.22 0 011.56 4.13 5 5 0 01-1.61 4z"/></symbol><symbol viewBox="0 0 24 24" id="pocket" xmlns="http://www.w3.org/2000/svg"><path d="M4.57 3.9A1.5 1.5 0 003 5.52v6c0 4.85 4.82 8.65 9 8.62 4.69 0 9-4 9-8.62v-6a1.528 1.528 0 00-1.62-1.62zm3.8 4.85L12 12.18l3.6-3.43c1.62-.68 2.33 1.17 1.66 1.71L12.55 15a1.57 1.57 0 01-1.13 0l-4.71-4.5c-.64-.64.19-2.5 1.66-1.75z"/></symbol><symbol viewBox="0 0 24 24" id="prev" xmlns="http://www.w3.org/2000/svg"><path d="M14.71 6.71a1 1 0 00-1.41 0L8.71 11.3a1 1 0 000 1.41l4.59 4.59a1 1 0 001.41-1.41L10.83 12l3.88-3.88a1 1 0 000-1.41z"/></symbol><symbol viewBox="0 0 24 24" id="price" xmlns="http://www.w3.org/2000/svg"><g><path d="M10.39 6.96a1 1 0 00-1.6 1.2l1.776 2.368H9a1 1 0 100 2h2v.896H9a1 1 0 100 2h2v1.515a1 1 0 102 0v-1.515h2a1 1 0 100-2h-2v-.896h2a1 1 0 000-2h-1.566l1.775-2.367a1 1 0 10-1.6-1.2L12 9.106z"/><path clip-rule="evenodd" d="M12 1.75C6.34 1.75 1.75 6.34 1.75 12S6.34 22.25 12 22.25 22.25 17.66 22.25 12 17.66 1.75 12 1.75zM3.75 12a8.25 8.25 0 1116.5 0 8.25 8.25 0 01-16.5 0z" fill-rule="evenodd"/></g></symbol><symbol viewBox="0 0 24 24" id="rss" xmlns="http://www.w3.org/2000/svg"><g><path d="M6.24 20a2.24 2.24 0 100-4.48 2.24 2.24 0 000 4.48z"/><path d="M4 4v2.91A13.09 13.09 0 0117.09 20H20A16 16 0 004 4zm0 5.82v2.91A7.28 7.28 0 0111.27 20h2.91A10.18 10.18 0 004 9.82z"/></g></symbol><symbol viewBox="0 0 24 24" id="search" xmlns="http://www.w3.org/2000/svg"><path d="M15.587 14.087l-.12.68a6.52 6.52 0 10-.7.7h-.79l5.31 5.31a1.053 1.053 0 101.49-1.49l-5.19-5.2zm-5.05.95a4.5 4.5 0 114.5-4.5 4.488 4.488 0 01-4.5 4.5z"/></symbol><symbol viewBox="0 0 24 24" id="share-apple" xmlns="http://www.w3.org/2000/svg"><g><path d="M18 8h-2c-.55 0-1 .45-1 1s.45 1 1 1h2v11H6V10h2c.55 0 1-.45 1-1s-.45-1-1-1H6c-1.1 0-2 .9-2 2v11c0 1.1.9 2 2 2h12c1.1 0 2-.9 2-2V10c0-1.1-.9-2-2-2z"/><path d="M12 16c.55 0 1-.45 1-1V5h1.79c.45 0 .67-.54.35-.85l-2.79-2.79c-.2-.2-.51-.2-.71 0L8.85 4.15a.5.5 0 00.36.85H11v10c0 .55.45 1 1 1z"/></g></symbol><symbol viewBox="0 0 24 24" id="share-google" xmlns="http://www.w3.org/2000/svg"><path d="M17 16.08c-.76 0-1.44.3-1.96.77L7.91 12.7c.05-.23.09-.46.09-.7s-.04-.47-.09-.7l7.05-4.11c.54.5 1.25.81 2.04.81 1.66 0 3-1.34 3-3s-1.34-3-3-3-3 1.34-3 3c0 .24.04.47.09.7L7.04 9.81C6.5 9.31 5.79 9 5 9c-1.66 0-3 1.34-3 3s1.34 3 3 3c.79 0 1.5-.31 2.04-.81l7.12 4.16c-.05.21-.08.43-.08.65 0 1.61 1.31 2.92 2.92 2.92s2.92-1.31 2.92-2.92-1.31-2.92-2.92-2.92z"/></symbol><symbol viewBox="0 0 24 24" id="tag" xmlns="http://www.w3.org/2000/svg"><path d="M20 9c0-.55-.45-1-1-1h-3V5c0-.55-.45-1-1-1s-1 .45-1 1v3h-4V5c0-.55-.45-1-1-1s-1 .45-1 1v3H5c-.55 0-1 .45-1 1s.45 1 1 1h3v4H5c-.55 0-1 .45-1 1s.45 1 1 1h3v3c0 .55.45 1 1 1s1-.45 1-1v-3h4v3c0 .55.45 1 1 1s1-.45 1-1v-3h3c.55 0 1-.45 1-1s-.45-1-1-1h-3v-4h3c.55 0 1-.45 1-1zm-6 5h-4v-4h4z"/></symbol><symbol viewBox="0 0 24 24" id="update" xmlns="http://www.w3.org/2000/svg"><path d="M21 12V6c0-1.1-.9-2-2-2h-1V3c0-.55-.45-1-1-1s-1 .45-1 1v1H8V3c0-.55-.45-1-1-1s-1 .45-1 1v1H5c-1.1 0-2 .9-2 2v14c0 1.1.9 2 2 2h7v-2H5V10h14v2zm-5.87 8c-.55 0-.91.56-.68 1.06A4.988 4.988 0 0019 24c2.76 0 5-2.24 5-5s-2.24-5-5-5c-1.36 0-2.6.55-3.5 1.43v-.68c0-.41-.34-.75-.75-.75s-.75.34-.75.75V17c0 .55.45 1 1 1h2.25c.41 0 .75-.34.75-.75s-.34-.75-.75-.75h-.7c.63-.62 1.5-1 2.45-1 1.93 0 3.5 1.57 3.5 3.5s-1.57 3.5-3.5 3.5c-1.42 0-2.64-.85-3.19-2.06a.745.745 0 00-.68-.44z"/></symbol><symbol viewBox="0 0 24 24" id="x" xmlns="http://www.w3.org/2000/svg"><path d="M13.482 10.622L20.04 3h-1.554l-5.693 6.618L8.245 3H3l6.876 10.007L3 21h1.554l6.012-6.989L15.368 21h5.245l-7.131-10.378zm-2.128 2.474l-.697-.997-5.543-7.93H7.5l4.474 6.4.697.997 5.815 8.318h-2.387l-4.745-6.788z"/></symbol></svg>