<svg fill="none" height="24" viewBox="0 0 24 24" width="24" xmlns="http://www.w3.org/2000/svg"><g fill="#fff"><path d="m10.3907 6.96066c-.3314-.44182-.95817-.53137-1.4-.2-.44183.33138-.53137.95818-.2 1.4l1.7757 2.36764h-1.5664c-.55228 0-1 .4477-1 1 0 .5522.44772 1 1 1h2v.8953h-2c-.55228 0-1 .4477-1 1s.44772 1 1 1h2v1.5157c0 .5523.4477 1 1 1s1-.4477 1-1v-1.5157h2c.5523 0 1-.4477 1-1s-.4477-1-1-1h-2v-.8953h2c.5523 0 1-.4478 1-1 0-.5523-.4477-1-1-1h-1.5664l1.7757-2.36764c.3314-.44182.2418-1.06862-.2-1.39999-.4418-.33138-1.0686-.24183-1.4.19999l-1.6093 2.14573z"/><path clip-rule="evenodd" d="m12 1.75c-5.66092 0-10.25 4.58908-10.25 10.25 0 5.6609 4.58908 10.25 10.25 10.25 5.6609 0 10.25-4.5891 10.25-10.25 0-5.66092-4.5891-10.25-10.25-10.25zm-8.25 10.25c0-4.55635 3.69365-8.25 8.25-8.25 4.5563 0 8.25 3.69365 8.25 8.25 0 4.5563-3.6937 8.25-8.25 8.25-4.55635 0-8.25-3.6937-8.25-8.25z" fill-rule="evenodd"/></g></svg>