<svg width="24" height="24" viewBox="0 0 24 24" fill="none" xmlns="http://www.w3.org/2000/svg">
<path d="M15.587 14.087L15.467 14.767C16.5655 13.4875 17.1255 11.8322 17.0294 10.1486C16.9334 8.46502 16.1887 6.88413 14.9519 5.73787C13.715 4.59161 12.0822 3.96914 10.3961 4.00118C8.71012 4.03321 7.10208 4.71725 5.90966 5.90966C4.71725 7.10208 4.03321 8.71012 4.00118 10.3961C3.96914 12.0822 4.59161 13.715 5.73787 14.9519C6.88413 16.1887 8.46502 16.9334 10.1486 17.0294C11.8322 17.1255 13.4875 16.5655 14.767 15.467H13.977L19.287 20.777C19.3849 20.8749 19.501 20.9525 19.6288 21.0054C19.7567 21.0584 19.8937 21.0856 20.032 21.0856C20.1704 21.0856 20.3074 21.0584 20.4352 21.0054C20.5631 20.9525 20.6792 20.8749 20.777 20.777C20.8749 20.6792 20.9525 20.5631 21.0054 20.4352C21.0584 20.3074 21.0856 20.1704 21.0856 20.032C21.0856 19.8937 21.0584 19.7567 21.0054 19.6288C20.9525 19.501 20.8749 19.3849 20.777 19.287L15.587 14.087ZM10.537 15.037C9.64702 15.037 8.77699 14.7731 8.03697 14.2786C7.29695 13.7842 6.72017 13.0814 6.37958 12.2591C6.03898 11.4368 5.94987 10.532 6.1235 9.65913C6.29713 8.78621 6.72572 7.98439 7.35505 7.35505C7.98439 6.72572 8.78621 6.29713 9.65913 6.1235C10.532 5.94987 11.4368 6.03898 12.2591 6.37958C13.0814 6.72017 13.7842 7.29695 14.2786 8.03697C14.7731 8.77699 15.037 9.64702 15.037 10.537C15.0384 11.1284 14.9229 11.7141 14.6972 12.2607C14.4715 12.8072 14.1401 13.3038 13.722 13.722C13.3038 14.1401 12.8072 14.4715 12.2607 14.6972C11.7141 14.9229 11.1284 15.0384 10.537 15.037Z" fill="white"/>
</svg>
