<svg fill="none" height="24" viewBox="0 0 24 24" width="24" xmlns="http://www.w3.org/2000/svg"><path d="m21 12v-6c0-1.1-.9-2-2-2h-1v-1c0-.55-.45-1-1-1s-1 .45-1 1v1h-8v-1c0-.55-.45-1-1-1s-1 .45-1 1v1h-1c-1.1 0-2 .9-2 2v14c0 1.1.9 2 2 2h7v-2h-7v-10h14v2zm-5.87 8c-.55 0-.91.56-.68 1.06.78 1.73 2.52 2.94 4.55 2.94 2.76 0 5-2.24 5-5s-2.24-5-5-5c-1.36 0-2.6.55-3.5 1.43v-.68c0-.41-.34-.75-.75-.75s-.75.34-.75.75v2.25c0 .55.45 1 1 1h2.25c.41 0 .75-.34.75-.75s-.34-.75-.75-.75h-.7c.63-.62 1.5-1 2.45-1 1.93 0 3.5 1.57 3.5 3.5s-1.57 3.5-3.5 3.5c-1.42 0-2.64-.85-3.19-2.06-.12-.27-.39-.44-.68-.44z" fill="#fff"/></svg>