<svg fill="none" height="680" viewBox="0 0 800 680" width="800" xmlns="http://www.w3.org/2000/svg"><path clip-rule="evenodd" d="m643.5 523.739 1.4-1.61c.227-.26.49-.466.79-.62 1.14-.573 2.18-1.286 3.12-2.14 2.28-2.06 5.44-4.446 9.48-7.16 1.905-1.288 3.623-1.225 5.582-1.154.489.018.993.036 1.518.034.967 0 1.984.287 3.05.86 1.007.54 1.947 1.084 2.82 1.63 1.547.98 2.814 2.337 3.8 4.07.68 1.2.984 2.514.91 3.94-.093 1.594-.12 3.13-.08 4.61.007.354-.08.684-.26.99-.333.57-.619 1.173-.903 1.774l-.001.001c-.595 1.256-1.188 2.509-2.216 3.455-2.36 2.173-4.603 4.47-6.73 6.89-9.273 10.56-18.21 21.414-26.81 32.56-.8 1.034-1.526 2.047-2.18 3.04-1.226 1.873-2.78 3.514-4.66 4.92-.071.055-.126.129-.158.213-.033.084-.041.175-.024.263.007.038.019.074.035.108.021.046.049.088.083.125.061.064.138.11.224.131 1.26.34 2.64-.04 3.75-.68 9.667-5.66 18.197-11.89 25.59-18.69 7.12-6.553 14.064-12.8 20.83-18.74 1.059-.937 2.141-1.497 3.264-2.079.542-.28 1.093-.566 1.656-.901 1.061-.629 2.456-.586 3.761-.546.417.013.824.026 1.209.016.84-.02 1.694.207 2.56.68 1.214.66 2.407 1.3 3.58 1.92 1.354.72 2.77 2.497 4.25 5.33.194.38.247.78.16 1.2-.22 1-.01 1.813.63 2.44.334.327.46.724.38 1.19-.046.32-.213.543-.5.67-.326.147-.486.404-.48.77.067 2.48-.613 4.384-2.04 5.71-6.353 5.9-10.896 10.434-13.63 13.6-6.253 7.233-12.54 15.017-18.86 23.35-2.913 3.847-5.376 7.364-7.39 10.55-.78 1.226-1.846 1.937-2.973 2.689-.187.125-.377.251-.567.381-.036.024-.07.053-.099.084-.034.036-.063.077-.086.121-.044.082-.066.174-.065.268.001.093.025.185.071.267.045.081.11.15.189.2.54.353 1.12.437 1.74.25 5.258-1.549 10.734-5.449 15.587-8.905 1.036-.738 2.043-1.455 3.013-2.125.94-.646 2.004-1.13 3.19-1.45 3.29-.87 7.11 1.66 9.28 4.14 1.58 1.8 2.684 3.757 3.31 5.87.747 2.507.494 5.03-.76 7.57-.613 1.247-1.523 2.173-2.73 2.78-7.026 3.527-13.93 7.657-20.71 12.39-3.686 2.567-7.6 4.457-11.74 5.67-.633.187-1.28.273-1.94.26-.54-.007-.99.183-1.35.57-.114.123-.252.222-.407.291-.154.069-.322.106-.493.109l-6.87.03c-.373.007-.696-.12-.97-.38-.64-.587-1.416-.8-2.33-.64-.346.067-.686.037-1.02-.09-1.126-.427-2.123-.99-2.99-1.69-.6-.482-1.21-.856-1.802-1.219v-.001c-1.251-.767-2.42-1.485-3.248-3.06-.7-1.34-1.52-2.957-2.46-4.85-.526-1.06-.78-2.23-.76-3.51.054-3.093.134-5.877.24-8.35.027-.48.244-.846.65-1.1.38-.246.554-.143.52.31-.086 1.267-.216 2.62-.39 4.06-.006.073.024.117.09.13l.27.04c.074.013.11-.02.11-.1-.08-1.093.217-2.076.89-2.95.247-.313.374-.667.38-1.06.034-1.773.66-3.53 1.88-5.27.394-.553.47-1.143.23-1.77-.048-.125-.13-.234-.236-.316-.107-.081-.234-.131-.369-.144-.134-.014-.27.01-.392.068-.123.059-.228.149-.303.262-.286.453-.646.623-1.08.51-.393-.1-.746-.023-1.06.23-.9.74-1.906 1.037-3.02.89-.139-.021-.282-.004-.414.049-.106.042-.202.107-.281.189-.019.02-.038.04-.055.062-.38.48-.883.713-1.51.7-2.78-.053-5.573-.037-8.38.05-1.546.047-3.156-.363-4.83-1.23-2.44-1.267-4.233-2.523-5.38-3.77-1.093-1.193-2.133-2.716-3.12-4.57-.966-1.833-1.446-3.58-1.44-5.24.02-2.86.197-5.49.53-7.89.02-.14.1-.2.24-.18l.29.05c.147.027.2.114.16.26-.18.567-.236 1.127-.17 1.68.06.44.187.464.38.07 1.1-2.246 1.974-4.513 2.62-6.8.152-.524.429-.994.703-1.459.196-.333.391-.664.537-1.011.914-2.193.33-2.713-1.75-1.56-.52.287-1.016.564-1.49.83-.5.28-1.026.494-1.58.64-1.866.5-3.69 1-5.47 1.5-2.717.766-5.12.695-7.747.617l-.298-.009-.265-.008c-.393-.006-.743-.136-1.05-.39-.573-.466-1.236-.68-1.99-.64-.433.02-.82-.106-1.16-.38-.374-.308-.763-.473-1.15-.636-.493-.209-.982-.415-1.43-.914-1.22-1.346-2.51-2.637-3.87-3.87-.532-.484-.746-1-.962-1.522-.181-.437-.364-.879-.738-1.308-.128-.153-.219-.333-.268-.527-.048-.194-.052-.396-.012-.593.14-.68-.046-1.237-.56-1.67-.293-.246-.44-.567-.44-.96l.01-6.72c0-.353.107-.67.32-.95.674-.893.904-2.12.69-3.68-.033-.273-.183-.37-.45-.29-.94.287-1.723.097-2.35-.57-.155-.167-.353-.29-.572-.357-.22-.067-.454-.075-.678-.023-1.14.254-2.076.027-2.81-.68-.148-.142-.329-.247-.527-.306s-.408-.071-.613-.034c-1.546.28-2.876.043-3.99-.71-.384-.256-.855-.349-1.31-.26-.96.187-1.78-.016-2.46-.61-.38-.333-.82-.47-1.32-.41-2.22.28-4.07-.397-5.55-2.03-.246-.273-.553-.453-.92-.54-2.473-.6-4.923-1.173-7.35-1.72-58.42-13.16-116.896-26.12-175.43-38.88-1.526-.333-3.023-.696-4.49-1.09-1.291-.348-2.6-.559-3.901-.769h-.001c-1.611-.259-3.21-.516-4.748-1.031-1.794-.603-3.605-.893-5.4-1.181-1.866-.3-3.715-.596-5.51-1.239-1.835-.654-3.739-.963-5.661-1.275-1.722-.279-3.458-.561-5.169-1.095-1.733-.54-3.526-.96-5.38-1.26-2.84-.45-3.57 1.71-3.78 3.97-.019.184-.081.359-.18.51l-.46.67c-.154.224-.214.5-.17.77.14.827-.1 1.477-.72 1.95-.128.099-.225.233-.28.385s-.065.317-.03.475c.22.954-.033 1.694-.76 2.22-.105.076-.185.182-.228.304s-.047.253-.012.376c.187.634.11 1.207-.23 1.72-.726 1.08-1.25 2.21-1.57 3.39-.306 1.107-.72 2.174-1.24 3.2-2.346 4.6-4.643 9.174-6.89 13.72-.345.708-.755 1.208-1.172 1.717-.32.389-.644.785-.948 1.283-11.82 19.147-27.35 34.764-46.59 46.85-1.62 1.02-3.243 2.003-4.87 2.95-4.393 2.573-9.243 5.047-14.55 7.42-.335.152-.637.19-.927.226-.342.042-.667.083-1.013.304-1.3.834-2.63 1.404-3.99 1.71-.645.144-1.234.454-1.822.764-.433.228-.864.455-1.318.616-28.713 9.967-57.71 11.22-86.99 3.76-3.229-.828-6.701-2.03-10.154-3.225l-.002-.001-.003-.001c-1.593-.551-3.182-1.102-4.741-1.613-1.593-.513-3.063-1.12-4.41-1.82-.986-.513-1.993-.943-3.02-1.29-.993-.34-1.973-.753-2.94-1.24-10.84-5.486-20.31-11.623-28.4097-18.41-7.28-6.1-15.79-14.68-21.96-22.61-13.3267-17.147-22.2167-36.477-26.67-57.99-.2267-1.08-.38-2.17-.46-3.27-.0522-.726-.235-1.407-.418-2.089-.2027-.755-.4057-1.511-.432-2.331-.06-2.11-.13-3.65-.61-6.05-.3133-1.586-.47-3.19-.47-4.81.0133-6.753.0333-13.507.06-20.26 0-1.28.1567-2.52.47-3.72.2733-1.06.46-2.18.56-3.36.4933-5.5 1.8167-12.28 3.97-20.34.1259-.458.3167-.833.5-1.193.3407-.67.6556-1.289.48-2.297-.1067-.606.0533-1.133.48-1.58.4333-.46.6033-1.03.51-1.71-.08-.56.1-1.023.54-1.39.4267-.353.5833-.803.47-1.35-.08-.373-.03-.726.15-1.06l1.58-2.95c.1467-.266.22-.55.22-.85.0007-.033.0012-.066.0017-.098l.0005-.035c.0065-.451.0114-.787.2578-1.207.6333-1.06 1.19-2.15 1.67-3.27.1435-.335.3289-.617.5073-.888.344-.524.662-1.008.6027-1.752-.0326-.365.0439-.733.22-1.06 1.1333-2.1 2.21-4.236 3.23-6.41.4733-1.013 1.06-1.956 1.76-2.83.565-.697.992-1.516 1.4221-2.34l.0005-.001c.2549-.489.5109-.98.7974-1.449 15.34-24.946 36.6037-44.037 63.7897-57.27.627-.307 1.277-.493 1.95-.56.327-.033.634-.13.92-.29 1.667-.9 3.367-1.75 5.1-2.55.42-.2.867-.253 1.34-.16.26.047.477-.03.65-.23.547-.64 1.284-.893 2.21-.76.157.022.318.005.467-.049.15-.054.285-.143.393-.261.58-.62 1.327-.846 2.24-.68.287.047.524-.04.71-.26.527-.627 1.234-.88 2.12-.76.387.054.714-.056.98-.33.567-.573 1.287-.797 2.16-.67.139.022.28.01.413-.036.132-.045.251-.122.347-.224l.24-.25c.094-.1.204-.16.33-.18 1.934-.36 3.87-.79 5.81-1.29 3.354-.865 6.812-1.388 10.258-1.908h.001l.005-.001c1.329-.2 2.657-.401 3.976-.621 2.776-.461 5.397-.489 8.12-.518l.16-.002c.334-.006.644-.083.93-.23 1.845-.952 4.558-.847 6.974-.755.885.034 1.729.067 2.476.045.327-.006.494-.173.5-.5.04-2.373.004-4.843-.11-7.41-.046-1.093.19-2.03.71-2.81.261-.384.397-.838.39-1.3-.053-4.66.014-9.433.2-14.32.034-.833.212-1.606.39-2.375.196-.846.39-1.688.39-2.605-.006-3.993.04-8.02.14-12.08.02-.771.218-1.476.414-2.17.197-.701.391-1.391.396-2.13.027-4.2.077-8.543.15-13.03.014-1.16.244-2.35.69-3.57.31-.834.314-1.855.318-2.913.003-.855.007-1.734.172-2.557.68-3.42 1.157-7.243 1.43-11.47.587-9.213 1.084-18.077 1.49-26.59.147-3.146.377-6.47.69-9.97.22-2.467.256-4.93.291-7.396.028-1.913.056-3.826.169-5.744.914-15.086 1.864-29.946 2.85-44.58.106-1.597.155-3.168.205-4.745v-.001c.073-2.304.146-4.624.395-7.064.314-3.106.444-6.286.39-9.54-.04-2.6.59-5.19 1.31-7.65.82-2.8 2.474-5.29 4.96-7.47 3.314-2.913 6.604-5.817 9.87-8.7098 4.42-3.92 11.02-2.97 16.17-1.11 127.634 46.0938 250.83 90.7038 369.59 133.8298 14.03 5.1 18.23 11.9 19.09 26.56 1.567 26.713 3.19 53.463 4.87 80.25.04.53-.06 1.07-.16 1.6-.086.494.11.66.59.5.28-.093.434-.297.46-.61.013-.174.084-.337.2-.46l2.98-3.11c.24-.253.53-.337.87-.25.38.087.657-.066.83-.46.154-.347.34-.663.56-.95 31.82-41.34 63.637-82.643 95.45-123.91 4.78-6.2 13.82-6.37 18.27.23 3.4 5.03 1.54 9.86-1.97 14.44-36.48 47.627-72.783 95.227-108.91 142.8-.573.754-.846 1.554-.82 2.4.014.36-.13.637-.43.83-.666.427-1.076 1.034-1.23 1.82-.065.325-.226.619-.46.84l-2.13 2.02c-.1.094-.177.209-.228.339-.05.13-.071.27-.062.411l.03.59c.01.146-.015.294-.072.431-.057.136-.145.259-.258.359-.64.56-.933 1.24-.88 2.04 1.92 31.12 3.924 62.91 6.01 95.37.194 3.02.284 5.813.27 8.38-.006.647.224.74.69.28.267-.266.35-.543.25-.83-.16-.466-.01-.61.45-.43 2.1.834 3.794 1.81 5.08 2.93.967.836 1.494 2.006 2.025 3.185l.001.001c.32.712.643 1.427 1.064 2.074.194.287.294.603.3.95.009.408.027.832.047 1.265v.001c.094 2.134.197 4.492-.867 6.304-.246.416-.463.851-.679 1.285v.001c-.512 1.028-1.021 2.052-1.921 2.804-2.11 1.78-3.56 3.92-3.59 6.85-.026 2.214-.02 4.31.02 6.29.003.172.043.341.118.494.074.154.181.289.312.396.4.32.63.84.6 1.35-.066 1.354-.056 2.62.03 3.8.04.487.22.547.54.18zm-2.15-15.53c.547-.68.74-1.436.58-2.27-.086-.433-.25-.463-.49-.09-.46.72-.656 1.457-.59 2.21.04.454.207.503.5.15zm-35.58 75.87c-.254-.713-.227-1.353.08-1.92.213-.393.313-.367.3.08l-.03 1.78c-.014.66-.13.68-.35.06zm27.282 25.271-.002-.041c-.02-.36-.123-.387-.31-.08-.347.573-.417 1.334-.21 2.28.1.474.23.48.39.02.225-.627.172-1.514.132-2.179z" fill="#99999922" fill-rule="evenodd"/></svg>
