<svg enable-background="new 0 0 167 60" viewBox="0 0 167 60" xmlns="http://www.w3.org/2000/svg"><g fill="#fff"><path d="m21.5 15.1c-6.3-.2-15.1.2-21.5.2v32.7h9.2v-24.8s8.2-.3 11.1.1c2.8.3 3.8 2 3.9 5.6.1 4.1 0 6.2 0 19.1h9.2s.1-14.8 0-19.9c-.2-9.1-3.4-12.8-11.9-13z"/><path d="m63.9 15c-9.1 0-16.4 7.4-16.4 16.5s7.4 16.5 16.4 16.5 16.4-7.4 16.4-16.5-7.3-16.5-16.4-16.5zm0 25.2c-4.8 0-8.6-3.9-8.6-8.7s3.8-8.7 8.6-8.7 8.6 3.9 8.6 8.7-3.8 8.7-8.6 8.7z"/><path d="m167 31.5c0-9.1-7.4-16.5-16.4-16.5s-16.4 7.4-16.4 16.5c0 5.4 2.4 9.9 6.3 13 2.7 2.1 6.4 3.6 11.3 3.6 2.4 0 8.7-.7 13.2-5.7l-3.7-5c-1.6 1.4-5.5 3.4-8.7 3.4-4 0-6.4-.8-8.2-2.4-1.1-1-1.9-2.5-2.2-4.3h24.6c.1-.9.2-1.7.2-2.6zm-24.8-3c.9-3.9 3.6-6.8 8.3-6.8 4.9 0 7.4 3.1 8.3 6.8z"/><path d="m111.5 11.9h-8.6v9.2h-8.8v8h8.8v9.6h8.6v-9.6h8.8v-8h-8.8z"/></g></svg>